<svg id="Layer_1" enable-background="new 0 0 510 510" height="512" viewBox="0 0 510 510" width="512" xmlns="http://www.w3.org/2000/svg"><g><path d="m374.462 120h30v30h-30z"/><path d="m194.462 210h315v-15c0-64.131-44.951-117.957-105-131.635v-63.365h-187.5l-45 60h-7.5c-218.65 8.321-218.484 321.757 0 330h150c19.877.756 19.862 29.251 0 30h-75c-59.632 2.269-59.587 87.753 0 90h90c57.897 0 105-47.103 105-105v-30c0-57.897-47.103-105-105-105h-135c-39.754-1.513-39.724-58.501 0-60zm90-150v-30h30v30zm65.343 120c-27.099-23.8-27.188-66.121 0-90h24.657c52.805 0 96.631 39.183 103.932 90zm24.657-120h-30v-30h30zm-142.5-30h22.5v30h-45zm-67.5 60h146.967c-5.325 9.209-8.964 19.34-10.73 30h-124.118c-40.707 0-77.371 24.176-93.405 61.592-9.68 22.587-30.031 38.317-53.699 42.368.561-73.962 60.894-133.96 134.985-133.96zm30 210h135c41.355 0 75 33.645 75 75v30c0 41.355-33.645 75-75 75h-90c-19.877-.756-19.862-29.251 0-30h75c59.632-2.269 59.587-87.753 0-90h-150c-64.537 0-118.632-45.523-131.884-106.144 34.426-5.194 64.168-27.77 78.172-60.448 11.3-26.369 37.141-43.408 65.831-43.408h124.118c1.767 10.66 5.405 20.791 10.73 30h-116.967c-79.508 3.026-79.448 117.002 0 120z"/></g></svg>