<svg xmlns="http://www.w3.org/2000/svg" width="416.002" height="512.055" viewBox="0 0 416.002 512.055">
  <g id="Pig_Food" data-name="Pig Food" transform="translate(-48 0.027)">
    <g id="Outline">
      <path id="패스_1389" data-name="패스 1389" d="M442.935,90.168,408,45.255c-1.158-34.358,2.771-40-3.794-44.06C397.914-2.7,393.5,3.39,376,11.056L355.566.845c-5.968-2.987-9.337,2.044-27.579,10.211-18.3-8.191-21.609-13.2-27.578-10.211L279.985,11.056C261.7,2.868,258.378-2.143,252.407.845l-20.42,10.211L211.568.845c-5.992-3-9.762,2.236-27.573,10.211C165.706,2.868,162.389-2.143,156.418.845L136,11.056,115.578.845A8,8,0,0,0,104,8V45.255L69.065,90.172A100.476,100.476,0,0,0,48,151.565V355c0,47.585,30.841,70.47,56,111.521,1.166,34.776-2.759,40.233,3.794,44.285a8,8,0,0,0,7.784.349L136,500.944c18.311,8.2,21.6,13.2,27.576,10.211L184,500.944c18.278,8.185,21.6,13.2,27.573,10.211l20.419-10.211c18.289,8.189,21.6,13.2,27.576,10.211l20.422-10.211,20.424,10.211a7.991,7.991,0,0,0,7.154,0l20.424-10.211,20.425,10.211c5.969,2.987,9.341-2.046,27.583-10.211,20.358,9.879,22.988,13.09,28.211,9.861,6.579-4.065,2.643-9.95,3.794-44.283l37.926-54.177A99.578,99.578,0,0,0,464,355V216a8,8,0,0,0-16,0V355c0,39.8-24.589,57.135-48,95.05-23.157-37.5-48-55.22-48-95.05V151.57c0-42.279,28.679-61.578,48-90.54,19.268,28.883,48,48.311,48,90.54V152a8,8,0,0,0,16,0,99.353,99.353,0,0,0-21.065-61.832ZM392,491.057c-10.094-4.275-13.892-9.06-19.582-6.212l-20.429,10.211c-18.3-8.192-21.61-13.2-27.579-10.211l-20.424,10.211c-18.308-8.2-21.607-13.2-27.579-10.211l-20.422,10.211c-18.289-8.189-21.6-13.2-27.576-10.211L207.99,495.056c-18.284-8.188-21.6-13.2-27.573-10.211L160,495.056l-20.42-10.211c-5.691-2.848-9.49,1.939-19.576,6.211V472H392ZM352.851,96.046C352,95.957,360.955,96.017,152,96a8,8,0,0,0,0,16H344.2c-14.164,32.937-5.742,44.047-8.2,243a99.481,99.481,0,0,0,10.7,45H152a8,8,0,0,0,0,16H356.633l28,40H116.165l-28-40H120a8,8,0,0,0,0-16H77.08A83.537,83.537,0,0,1,64,355V151.565A84.406,84.406,0,0,1,81.694,99.994L115.912,56h267.73C356.823,90.637,356.608,90.406,352.851,96.046ZM392,40H120V20.944c10.094,4.276,13.886,9.059,19.576,6.211L160,16.944c18.289,8.188,21.606,13.2,27.577,10.211L207.99,16.944c18.289,8.189,21.6,13.2,27.575,10.211l20.42-10.211c18.286,8.187,21.607,13.2,27.578,10.211l20.423-10.211c18.3,8.191,21.61,13.2,27.578,10.211l20.425-10.211c18.29,8.187,21.615,13.2,27.583,10.211L392,20.943Z"/>
      <circle id="타원_27" data-name="타원 27" cx="8" cy="8" r="8" transform="translate(112 96)"/>
      <circle id="타원_28" data-name="타원 28" cx="8" cy="8" r="8" transform="translate(448 176)"/>
    </g>
  </g>
</svg>
